<svg xmlns="http://www.w3.org/2000/svg" width="100" height="100"><path d="M24.501 98.001a6.53 6.53 0 01-2.952-.709A6.47 6.47 0 0118 91.5v-75C18 10.701 22.701 6 28.5 6h47C81.299 6 86 10.701 86 16.5v75.501a6.002 6.002 0 01-9.6 4.8L50 77l3.011 1.949-24.689 17.808a6.44 6.44 0 01-3.821 1.244z" opacity=".35"/><path fill="#f2f2f2" d="M22.501 96.001a6.53 6.53 0 01-2.952-.709A6.47 6.47 0 0116 89.5v-75C16 8.71 20.71 4 26.5 4h47C79.29 4 84 8.71 84 14.5v75a6.469 6.469 0 01-3.552 5.793A6.517 6.517 0 0177.5 96a6.456 6.456 0 01-3.831-1.249L50 77.537l-23.678 17.22a6.44 6.44 0 01-3.821 1.244z"/><path fill="#f66" d="M26.5 10.5h47a4 4 0 014 4v75L50 69.5l-27.5 20v-75a4 4 0 014-4z"/><path fill="none" stroke="#40396e" stroke-linejoin="round" stroke-miterlimit="10" stroke-width="3" d="M26.5 10.5h47a4 4 0 014 4v75L50 69.5l-27.5 20v-75a4 4 0 014-4z"/></svg>